<mxfile host="app.diagrams.net" agent="Mozilla/5.0 (Windows NT 10.0; Win64; x64) AppleWebKit/537.36 (KHTML, like Gecko) Chrome/130.0.0.0 Safari/537.36" version="24.8.3">
  <diagram id="WI9T0HZ2pTsCkuznbFz-" name="Page-1">
    <mxGraphModel dx="1222" dy="686" grid="1" gridSize="10" guides="1" tooltips="1" connect="1" arrows="1" fold="1" page="1" pageScale="1" pageWidth="1169" pageHeight="827" math="0" shadow="0">
      <root>
        <mxCell id="0" />
        <mxCell id="1" parent="0" />
        <mxCell id="OcTnqQitxUlVeEcOREGu-1" value="" style="image;html=1;image=img/lib/clip_art/networking/Firewall_02_128x128.png" parent="1" vertex="1">
          <mxGeometry x="480" y="145" width="80" height="80" as="geometry" />
        </mxCell>
        <mxCell id="SRrDaFsQrVdnYjWCI2jx-20" style="edgeStyle=orthogonalEdgeStyle;rounded=0;orthogonalLoop=1;jettySize=auto;html=1;exitX=0.5;exitY=0;exitDx=0;exitDy=0;entryX=0.75;entryY=1;entryDx=0;entryDy=0;" edge="1" parent="1" source="OcTnqQitxUlVeEcOREGu-2" target="SRrDaFsQrVdnYjWCI2jx-5">
          <mxGeometry relative="1" as="geometry" />
        </mxCell>
        <mxCell id="OcTnqQitxUlVeEcOREGu-2" value="" style="image;html=1;image=img/lib/clip_art/computers/Laptop_128x128.png" parent="1" vertex="1">
          <mxGeometry x="490" y="530" width="80" height="80" as="geometry" />
        </mxCell>
        <mxCell id="SRrDaFsQrVdnYjWCI2jx-21" style="edgeStyle=orthogonalEdgeStyle;rounded=0;orthogonalLoop=1;jettySize=auto;html=1;exitX=0;exitY=0.5;exitDx=0;exitDy=0;" edge="1" parent="1" source="OcTnqQitxUlVeEcOREGu-3">
          <mxGeometry relative="1" as="geometry">
            <mxPoint x="1005" y="430" as="targetPoint" />
          </mxGeometry>
        </mxCell>
        <mxCell id="OcTnqQitxUlVeEcOREGu-3" value="" style="image;html=1;image=img/lib/clip_art/computers/Laptop_128x128.png" parent="1" vertex="1">
          <mxGeometry x="970" y="520" width="80" height="80" as="geometry" />
        </mxCell>
        <mxCell id="SRrDaFsQrVdnYjWCI2jx-19" style="edgeStyle=orthogonalEdgeStyle;rounded=0;orthogonalLoop=1;jettySize=auto;html=1;exitX=0.5;exitY=0;exitDx=0;exitDy=0;entryX=0.25;entryY=1;entryDx=0;entryDy=0;" edge="1" parent="1" source="OcTnqQitxUlVeEcOREGu-4" target="SRrDaFsQrVdnYjWCI2jx-5">
          <mxGeometry relative="1" as="geometry" />
        </mxCell>
        <mxCell id="OcTnqQitxUlVeEcOREGu-4" value="" style="image;html=1;image=img/lib/clip_art/computers/Laptop_128x128.png" parent="1" vertex="1">
          <mxGeometry x="380" y="540" width="80" height="80" as="geometry" />
        </mxCell>
        <mxCell id="OcTnqQitxUlVeEcOREGu-5" value="" style="image;aspect=fixed;perimeter=ellipsePerimeter;html=1;align=center;shadow=0;dashed=0;spacingTop=3;image=img/lib/active_directory/internet_cloud.svg;" parent="1" vertex="1">
          <mxGeometry x="330" y="179" width="50" height="31.5" as="geometry" />
        </mxCell>
        <mxCell id="OcTnqQitxUlVeEcOREGu-6" value="" style="image;html=1;image=img/lib/clip_art/computers/Server_Rack_128x128.png" parent="1" vertex="1">
          <mxGeometry x="830" y="210" width="80" height="80" as="geometry" />
        </mxCell>
        <mxCell id="OcTnqQitxUlVeEcOREGu-7" value="Server" style="text;strokeColor=none;align=center;fillColor=none;html=1;verticalAlign=middle;whiteSpace=wrap;rounded=0;" parent="1" vertex="1">
          <mxGeometry x="840" y="290" width="60" height="30" as="geometry" />
        </mxCell>
        <mxCell id="OcTnqQitxUlVeEcOREGu-8" value="Internet" style="text;strokeColor=none;align=center;fillColor=none;html=1;verticalAlign=middle;whiteSpace=wrap;rounded=0;" parent="1" vertex="1">
          <mxGeometry x="330" y="219" width="60" height="30" as="geometry" />
        </mxCell>
        <mxCell id="SRrDaFsQrVdnYjWCI2jx-24" style="edgeStyle=orthogonalEdgeStyle;rounded=0;orthogonalLoop=1;jettySize=auto;html=1;exitX=0;exitY=0.5;exitDx=0;exitDy=0;entryX=1;entryY=0.75;entryDx=0;entryDy=0;" edge="1" parent="1" source="OcTnqQitxUlVeEcOREGu-9" target="OcTnqQitxUlVeEcOREGu-8">
          <mxGeometry relative="1" as="geometry" />
        </mxCell>
        <mxCell id="OcTnqQitxUlVeEcOREGu-9" value="Firewall" style="text;strokeColor=none;align=center;fillColor=none;html=1;verticalAlign=middle;whiteSpace=wrap;rounded=0;" parent="1" vertex="1">
          <mxGeometry x="490" y="230" width="60" height="30" as="geometry" />
        </mxCell>
        <mxCell id="OcTnqQitxUlVeEcOREGu-11" value="Laptop 1" style="text;strokeColor=none;align=center;fillColor=none;html=1;verticalAlign=middle;whiteSpace=wrap;rounded=0;" parent="1" vertex="1">
          <mxGeometry x="390" y="620" width="60" height="30" as="geometry" />
        </mxCell>
        <mxCell id="OcTnqQitxUlVeEcOREGu-12" value="Laptop 2" style="text;strokeColor=none;align=center;fillColor=none;html=1;verticalAlign=middle;whiteSpace=wrap;rounded=0;" parent="1" vertex="1">
          <mxGeometry x="500" y="620" width="60" height="30" as="geometry" />
        </mxCell>
        <mxCell id="OcTnqQitxUlVeEcOREGu-13" value="Laptop 3" style="text;strokeColor=none;align=center;fillColor=none;html=1;verticalAlign=middle;whiteSpace=wrap;rounded=0;" parent="1" vertex="1">
          <mxGeometry x="990" y="620" width="60" height="30" as="geometry" />
        </mxCell>
        <mxCell id="SRrDaFsQrVdnYjWCI2jx-1" value="" style="image;html=1;image=img/lib/clip_art/networking/Wireless_Router_128x128.png" vertex="1" parent="1">
          <mxGeometry x="710" y="313.8" width="80" height="80" as="geometry" />
        </mxCell>
        <mxCell id="SRrDaFsQrVdnYjWCI2jx-23" style="edgeStyle=orthogonalEdgeStyle;rounded=0;orthogonalLoop=1;jettySize=auto;html=1;exitX=0;exitY=0.5;exitDx=0;exitDy=0;entryX=1;entryY=0.5;entryDx=0;entryDy=0;" edge="1" parent="1" source="SRrDaFsQrVdnYjWCI2jx-3" target="SRrDaFsQrVdnYjWCI2jx-7">
          <mxGeometry relative="1" as="geometry">
            <mxPoint x="500" y="320" as="targetPoint" />
          </mxGeometry>
        </mxCell>
        <mxCell id="SRrDaFsQrVdnYjWCI2jx-25" style="edgeStyle=orthogonalEdgeStyle;rounded=0;orthogonalLoop=1;jettySize=auto;html=1;exitX=1;exitY=0.5;exitDx=0;exitDy=0;entryX=0.5;entryY=1;entryDx=0;entryDy=0;" edge="1" parent="1" source="SRrDaFsQrVdnYjWCI2jx-3" target="OcTnqQitxUlVeEcOREGu-7">
          <mxGeometry relative="1" as="geometry" />
        </mxCell>
        <mxCell id="SRrDaFsQrVdnYjWCI2jx-3" value="Wireless Router" style="text;strokeColor=none;align=center;fillColor=none;html=1;verticalAlign=middle;whiteSpace=wrap;rounded=0;" vertex="1" parent="1">
          <mxGeometry x="670" y="395" width="120" height="30" as="geometry" />
        </mxCell>
        <mxCell id="SRrDaFsQrVdnYjWCI2jx-4" value="" style="strokeColor=#666666;html=1;labelPosition=right;align=left;spacingLeft=15;shadow=0;dashed=0;outlineConnect=0;shape=mxgraph.rack.general.switches_2;" vertex="1" parent="1">
          <mxGeometry x="410" y="414" width="160" height="30" as="geometry" />
        </mxCell>
        <mxCell id="SRrDaFsQrVdnYjWCI2jx-22" style="edgeStyle=orthogonalEdgeStyle;rounded=0;orthogonalLoop=1;jettySize=auto;html=1;exitX=1;exitY=0.5;exitDx=0;exitDy=0;entryX=0.5;entryY=1;entryDx=0;entryDy=0;" edge="1" parent="1" source="SRrDaFsQrVdnYjWCI2jx-5" target="SRrDaFsQrVdnYjWCI2jx-3">
          <mxGeometry relative="1" as="geometry" />
        </mxCell>
        <mxCell id="SRrDaFsQrVdnYjWCI2jx-5" value="Switch" style="text;strokeColor=none;align=center;fillColor=none;html=1;verticalAlign=middle;whiteSpace=wrap;rounded=0;" vertex="1" parent="1">
          <mxGeometry x="460" y="464" width="60" height="30" as="geometry" />
        </mxCell>
        <mxCell id="SRrDaFsQrVdnYjWCI2jx-6" value="" style="outlineConnect=0;dashed=0;verticalLabelPosition=bottom;verticalAlign=top;align=center;html=1;shape=mxgraph.aws3.classic_load_balancer;fillColor=#F58534;gradientColor=none;" vertex="1" parent="1">
          <mxGeometry x="380" y="274" width="69" height="72" as="geometry" />
        </mxCell>
        <mxCell id="SRrDaFsQrVdnYjWCI2jx-35" style="edgeStyle=orthogonalEdgeStyle;rounded=0;orthogonalLoop=1;jettySize=auto;html=1;exitX=0.75;exitY=0;exitDx=0;exitDy=0;entryX=0.5;entryY=1;entryDx=0;entryDy=0;" edge="1" parent="1" source="SRrDaFsQrVdnYjWCI2jx-7" target="OcTnqQitxUlVeEcOREGu-9">
          <mxGeometry relative="1" as="geometry">
            <Array as="points">
              <mxPoint x="470" y="354" />
              <mxPoint x="470" y="307" />
              <mxPoint x="520" y="307" />
            </Array>
          </mxGeometry>
        </mxCell>
        <mxCell id="SRrDaFsQrVdnYjWCI2jx-7" value="Load Balancer" style="text;strokeColor=none;align=center;fillColor=none;html=1;verticalAlign=middle;whiteSpace=wrap;rounded=0;" vertex="1" parent="1">
          <mxGeometry x="389" y="354" width="60" height="30" as="geometry" />
        </mxCell>
        <mxCell id="SRrDaFsQrVdnYjWCI2jx-8" value="" style="sketch=0;pointerEvents=1;shadow=0;dashed=0;html=1;strokeColor=none;fillColor=#005F4B;labelPosition=center;verticalLabelPosition=bottom;verticalAlign=top;align=center;outlineConnect=0;shape=mxgraph.veeam2.nas;" vertex="1" parent="1">
          <mxGeometry x="826" y="480" width="28" height="18" as="geometry" />
        </mxCell>
        <mxCell id="SRrDaFsQrVdnYjWCI2jx-37" style="edgeStyle=orthogonalEdgeStyle;rounded=0;orthogonalLoop=1;jettySize=auto;html=1;exitX=1;exitY=0.25;exitDx=0;exitDy=0;entryX=0;entryY=1;entryDx=0;entryDy=0;" edge="1" parent="1" source="SRrDaFsQrVdnYjWCI2jx-9" target="SRrDaFsQrVdnYjWCI2jx-11">
          <mxGeometry relative="1" as="geometry">
            <Array as="points">
              <mxPoint x="920" y="522" />
              <mxPoint x="920" y="414" />
            </Array>
          </mxGeometry>
        </mxCell>
        <mxCell id="SRrDaFsQrVdnYjWCI2jx-38" style="edgeStyle=orthogonalEdgeStyle;rounded=0;orthogonalLoop=1;jettySize=auto;html=1;exitX=0;exitY=0.5;exitDx=0;exitDy=0;entryX=1;entryY=0.75;entryDx=0;entryDy=0;" edge="1" parent="1" source="SRrDaFsQrVdnYjWCI2jx-9" target="SRrDaFsQrVdnYjWCI2jx-5">
          <mxGeometry relative="1" as="geometry" />
        </mxCell>
        <mxCell id="SRrDaFsQrVdnYjWCI2jx-9" value="Storage" style="text;strokeColor=none;align=center;fillColor=none;html=1;verticalAlign=middle;whiteSpace=wrap;rounded=0;" vertex="1" parent="1">
          <mxGeometry x="810" y="514" width="60" height="30" as="geometry" />
        </mxCell>
        <mxCell id="SRrDaFsQrVdnYjWCI2jx-10" value="" style="image;points=[];aspect=fixed;html=1;align=center;shadow=0;dashed=0;image=img/lib/allied_telesis/security/Router_VPN.svg;" vertex="1" parent="1">
          <mxGeometry x="980" y="334" width="55.800000000000004" height="39.6" as="geometry" />
        </mxCell>
        <mxCell id="SRrDaFsQrVdnYjWCI2jx-32" style="edgeStyle=orthogonalEdgeStyle;rounded=0;orthogonalLoop=1;jettySize=auto;html=1;exitX=1;exitY=0.5;exitDx=0;exitDy=0;entryX=1;entryY=0.25;entryDx=0;entryDy=0;" edge="1" parent="1" source="SRrDaFsQrVdnYjWCI2jx-11" target="SRrDaFsQrVdnYjWCI2jx-29">
          <mxGeometry relative="1" as="geometry" />
        </mxCell>
        <mxCell id="SRrDaFsQrVdnYjWCI2jx-11" value="Virtual Private Network" style="text;strokeColor=none;align=center;fillColor=none;html=1;verticalAlign=middle;whiteSpace=wrap;rounded=0;" vertex="1" parent="1">
          <mxGeometry x="990" y="384" width="60" height="30" as="geometry" />
        </mxCell>
        <mxCell id="SRrDaFsQrVdnYjWCI2jx-12" value="" style="image;html=1;image=img/lib/clip_art/computers/Printer_128x128.png" vertex="1" parent="1">
          <mxGeometry x="738" y="590" width="80" height="80" as="geometry" />
        </mxCell>
        <mxCell id="SRrDaFsQrVdnYjWCI2jx-14" style="edgeStyle=orthogonalEdgeStyle;rounded=0;orthogonalLoop=1;jettySize=auto;html=1;exitX=0;exitY=0.5;exitDx=0;exitDy=0;entryX=0.5;entryY=1;entryDx=0;entryDy=0;" edge="1" parent="1" source="SRrDaFsQrVdnYjWCI2jx-13" target="OcTnqQitxUlVeEcOREGu-11">
          <mxGeometry relative="1" as="geometry" />
        </mxCell>
        <mxCell id="SRrDaFsQrVdnYjWCI2jx-15" style="edgeStyle=orthogonalEdgeStyle;rounded=0;orthogonalLoop=1;jettySize=auto;html=1;exitX=0;exitY=0;exitDx=0;exitDy=0;entryX=0.5;entryY=1;entryDx=0;entryDy=0;" edge="1" parent="1" source="SRrDaFsQrVdnYjWCI2jx-13" target="OcTnqQitxUlVeEcOREGu-12">
          <mxGeometry relative="1" as="geometry" />
        </mxCell>
        <mxCell id="SRrDaFsQrVdnYjWCI2jx-13" value="Printer" style="text;strokeColor=none;align=center;fillColor=none;html=1;verticalAlign=middle;whiteSpace=wrap;rounded=0;" vertex="1" parent="1">
          <mxGeometry x="728" y="670" width="60" height="30" as="geometry" />
        </mxCell>
        <mxCell id="SRrDaFsQrVdnYjWCI2jx-28" value="" style="sketch=0;pointerEvents=1;shadow=0;dashed=0;html=1;strokeColor=none;fillColor=#005F4B;labelPosition=center;verticalLabelPosition=bottom;verticalAlign=top;align=center;outlineConnect=0;shape=mxgraph.veeam2.vpn_server;" vertex="1" parent="1">
          <mxGeometry x="960" y="115" width="40" height="52" as="geometry" />
        </mxCell>
        <mxCell id="SRrDaFsQrVdnYjWCI2jx-33" style="edgeStyle=orthogonalEdgeStyle;rounded=0;orthogonalLoop=1;jettySize=auto;html=1;exitX=0;exitY=0.5;exitDx=0;exitDy=0;entryX=1;entryY=0.25;entryDx=0;entryDy=0;" edge="1" parent="1" source="SRrDaFsQrVdnYjWCI2jx-29" target="SRrDaFsQrVdnYjWCI2jx-7">
          <mxGeometry relative="1" as="geometry" />
        </mxCell>
        <mxCell id="SRrDaFsQrVdnYjWCI2jx-29" value="VPN Server" style="text;strokeColor=none;align=center;fillColor=none;html=1;verticalAlign=middle;whiteSpace=wrap;rounded=0;" vertex="1" parent="1">
          <mxGeometry x="950" y="176" width="60" height="30" as="geometry" />
        </mxCell>
      </root>
    </mxGraphModel>
  </diagram>
</mxfile>
